<mxfile host="app.diagrams.net" modified="2022-04-21T12:18:02.292Z" agent="5.0 (Windows)" etag="xrN2TxxqKsCemt35t_Rl" version="17.4.3" type="github">
  <diagram id="U_0qFrb24xVqKFLouscz" name="Page-1">
    <mxGraphModel dx="1102" dy="600" grid="1" gridSize="10" guides="1" tooltips="1" connect="1" arrows="1" fold="1" page="1" pageScale="1" pageWidth="850" pageHeight="1100" math="0" shadow="0">
      <root>
        <mxCell id="0" />
        <mxCell id="1" parent="0" />
        <mxCell id="64btBB-LY6aFdNojZcXq-1" value="Database" style="rounded=0;whiteSpace=wrap;html=1;" vertex="1" parent="1">
          <mxGeometry x="80" y="260" width="120" height="60" as="geometry" />
        </mxCell>
        <mxCell id="64btBB-LY6aFdNojZcXq-6" style="edgeStyle=orthogonalEdgeStyle;rounded=0;orthogonalLoop=1;jettySize=auto;html=1;entryX=0.5;entryY=0;entryDx=0;entryDy=0;" edge="1" parent="1" source="64btBB-LY6aFdNojZcXq-2" target="64btBB-LY6aFdNojZcXq-1">
          <mxGeometry relative="1" as="geometry" />
        </mxCell>
        <mxCell id="64btBB-LY6aFdNojZcXq-2" value="Sis&lt;br&gt;Portal" style="rounded=0;whiteSpace=wrap;html=1;" vertex="1" parent="1">
          <mxGeometry x="305" y="100" width="120" height="60" as="geometry" />
        </mxCell>
        <mxCell id="64btBB-LY6aFdNojZcXq-7" style="edgeStyle=orthogonalEdgeStyle;rounded=0;orthogonalLoop=1;jettySize=auto;html=1;entryX=0.5;entryY=1;entryDx=0;entryDy=0;" edge="1" parent="1" source="64btBB-LY6aFdNojZcXq-3" target="64btBB-LY6aFdNojZcXq-1">
          <mxGeometry relative="1" as="geometry" />
        </mxCell>
        <mxCell id="64btBB-LY6aFdNojZcXq-3" value="Web Api&lt;br&gt;Back End" style="rounded=0;whiteSpace=wrap;html=1;" vertex="1" parent="1">
          <mxGeometry x="310" y="370" width="120" height="60" as="geometry" />
        </mxCell>
        <mxCell id="64btBB-LY6aFdNojZcXq-5" style="edgeStyle=orthogonalEdgeStyle;rounded=0;orthogonalLoop=1;jettySize=auto;html=1;entryX=1;entryY=0.25;entryDx=0;entryDy=0;" edge="1" parent="1" source="64btBB-LY6aFdNojZcXq-4" target="64btBB-LY6aFdNojZcXq-3">
          <mxGeometry relative="1" as="geometry" />
        </mxCell>
        <mxCell id="64btBB-LY6aFdNojZcXq-4" value="" style="rounded=1;whiteSpace=wrap;html=1;" vertex="1" parent="1">
          <mxGeometry x="630" y="350" width="120" height="60" as="geometry" />
        </mxCell>
      </root>
    </mxGraphModel>
  </diagram>
</mxfile>
